<mxfile host="app.diagrams.net" modified="2024-07-16T06:59:44.684Z" agent="Mozilla/5.0 (Windows NT 10.0; Win64; x64) AppleWebKit/537.36 (KHTML, like Gecko) Chrome/126.0.0.0 Safari/537.36 Edg/126.0.0.0" etag="jNXIRMpJk_UfARrcgoVu" version="24.6.5" type="device">
  <diagram id="pxMFsFOc0tZjBD_UBLxx" name="Page-2">
    <mxGraphModel dx="1434" dy="827" grid="1" gridSize="10" guides="1" tooltips="1" connect="1" arrows="1" fold="1" page="1" pageScale="1" pageWidth="1100" pageHeight="850" math="0" shadow="0">
      <root>
        <mxCell id="0" />
        <mxCell id="1" parent="0" />
        <mxCell id="Msfk9kiayMqFVNuE4b56-1" value="" style="verticalLabelPosition=bottom;html=1;verticalAlign=top;align=center;shape=mxgraph.azure.computer;pointerEvents=1;shadow=0;textShadow=0;direction=east;flipH=0;flipV=0;labelBackgroundColor=none;gradientColor=default;fillColor=#00BEF2;" parent="1" vertex="1">
          <mxGeometry x="10" y="295" width="100" height="100" as="geometry" />
        </mxCell>
        <mxCell id="Msfk9kiayMqFVNuE4b56-2" value="" style="shape=singleArrow;direction=west;whiteSpace=wrap;html=1;shadow=0;textShadow=0;flipH=0;flipV=0;labelBackgroundColor=none;gradientColor=default;" parent="1" vertex="1">
          <mxGeometry x="120" y="315" width="100" height="20" as="geometry" />
        </mxCell>
        <mxCell id="Msfk9kiayMqFVNuE4b56-3" value="" style="shape=singleArrow;whiteSpace=wrap;html=1;shadow=0;textShadow=0;direction=east;flipH=0;flipV=0;labelBackgroundColor=none;gradientColor=default;" parent="1" vertex="1">
          <mxGeometry x="120" y="335" width="100" height="20" as="geometry" />
        </mxCell>
        <mxCell id="Msfk9kiayMqFVNuE4b56-4" value="Pull" style="rounded=0;whiteSpace=wrap;html=1;arcSize=50;strokeColor=none;strokeWidth=1;fillColor=none;whiteSpace=wrap;align=left;verticalAlign=middle;spacingLeft=0;fontStyle=1;fontSize=14;spacing=10;textShadow=0;labelBorderColor=none;shadow=0;direction=east;flipH=0;flipV=0;labelBackgroundColor=none;" parent="1" vertex="1">
          <mxGeometry x="145" y="295" width="40" height="20" as="geometry" />
        </mxCell>
        <mxCell id="Msfk9kiayMqFVNuE4b56-5" value="Push" style="rounded=0;whiteSpace=wrap;html=1;arcSize=50;strokeColor=none;strokeWidth=1;fillColor=none;whiteSpace=wrap;align=left;verticalAlign=middle;spacingLeft=0;fontStyle=1;fontSize=14;spacing=10;textShadow=0;shadow=0;direction=east;flipH=0;flipV=0;labelBackgroundColor=none;" parent="1" vertex="1">
          <mxGeometry x="140" y="355" width="50" height="20" as="geometry" />
        </mxCell>
        <mxCell id="Msfk9kiayMqFVNuE4b56-6" value="" style="shape=ext;double=1;rounded=1;whiteSpace=wrap;html=1;shadow=0;textShadow=0;direction=east;flipH=0;flipV=0;labelBackgroundColor=none;" parent="1" vertex="1">
          <mxGeometry x="470" y="300" width="120" height="80" as="geometry" />
        </mxCell>
        <mxCell id="Msfk9kiayMqFVNuE4b56-7" value="" style="image;aspect=fixed;html=1;points=[];align=right;fontSize=12;image=img/lib/azure2/general/Branch.svg;shadow=0;textShadow=0;labelPosition=left;verticalLabelPosition=top;verticalAlign=bottom;direction=east;flipH=0;flipV=0;labelBackgroundColor=none;" parent="1" vertex="1">
          <mxGeometry x="460" y="290" width="30" height="30" as="geometry" />
        </mxCell>
        <mxCell id="Msfk9kiayMqFVNuE4b56-8" value="" style="verticalLabelPosition=middle;html=1;verticalAlign=middle;align=center;shape=mxgraph.azure.git_repository;shadow=0;textShadow=0;labelPosition=center;direction=east;flipH=0;flipV=0;labelBackgroundColor=none;fillColor=#00BEF2;" parent="1" vertex="1">
          <mxGeometry x="500" y="310" width="50" height="50" as="geometry" />
        </mxCell>
        <mxCell id="Msfk9kiayMqFVNuE4b56-9" value="" style="shape=ext;double=1;rounded=1;whiteSpace=wrap;html=1;shadow=0;labelBorderColor=none;textShadow=0;flipH=0;glass=0;direction=east;flipV=0;labelBackgroundColor=none;" parent="1" vertex="1">
          <mxGeometry x="230" y="300" width="120" height="80" as="geometry" />
        </mxCell>
        <mxCell id="Msfk9kiayMqFVNuE4b56-10" value="" style="image;aspect=fixed;html=1;points=[];align=right;fontSize=12;image=img/lib/azure2/general/Branch.svg;shadow=0;labelBorderColor=none;textShadow=0;flipH=0;labelPosition=left;verticalLabelPosition=top;verticalAlign=bottom;direction=east;flipV=0;labelBackgroundColor=none;" parent="1" vertex="1">
          <mxGeometry x="220" y="290" width="30" height="30" as="geometry" />
        </mxCell>
        <mxCell id="Msfk9kiayMqFVNuE4b56-11" value="" style="verticalLabelPosition=middle;html=1;verticalAlign=middle;align=center;shape=mxgraph.azure.git_repository;shadow=0;labelBorderColor=none;textShadow=0;flipH=0;labelPosition=center;direction=east;flipV=0;labelBackgroundColor=none;fillColor=#00BEF2;" parent="1" vertex="1">
          <mxGeometry x="260" y="310" width="50" height="50" as="geometry" />
        </mxCell>
        <mxCell id="Msfk9kiayMqFVNuE4b56-12" value="Sync" style="rounded=0;whiteSpace=wrap;html=1;arcSize=50;strokeColor=none;strokeWidth=1;fillColor=none;whiteSpace=wrap;align=left;verticalAlign=middle;spacingLeft=0;fontStyle=1;fontSize=14;spacing=10;textShadow=0;labelBorderColor=none;shadow=0;direction=east;flipH=0;flipV=0;glass=0;labelBackgroundColor=none;" parent="1" vertex="1">
          <mxGeometry x="227" y="250" width="60" height="20" as="geometry" />
        </mxCell>
        <mxCell id="Msfk9kiayMqFVNuE4b56-13" value="" style="shape=singleArrow;direction=west;whiteSpace=wrap;html=1;shadow=0;textShadow=0;flipH=0;flipV=0;labelBackgroundColor=none;gradientColor=default;" parent="1" vertex="1">
          <mxGeometry x="360" y="315" width="100" height="20" as="geometry" />
        </mxCell>
        <mxCell id="Msfk9kiayMqFVNuE4b56-14" value="" style="shape=singleArrow;whiteSpace=wrap;html=1;shadow=0;textShadow=0;direction=east;flipH=0;flipV=0;labelBackgroundColor=none;gradientColor=default;" parent="1" vertex="1">
          <mxGeometry x="360" y="335" width="100" height="20" as="geometry" />
        </mxCell>
        <mxCell id="Msfk9kiayMqFVNuE4b56-15" value="Branch" style="rounded=0;whiteSpace=wrap;html=1;arcSize=50;strokeColor=none;strokeWidth=1;fillColor=none;whiteSpace=wrap;align=left;verticalAlign=middle;spacingLeft=0;fontStyle=1;fontSize=14;spacing=10;textShadow=0;labelBorderColor=none;shadow=0;direction=east;flipH=0;flipV=0;labelBackgroundColor=none;" parent="1" vertex="1">
          <mxGeometry x="375" y="295" width="70" height="20" as="geometry" />
        </mxCell>
        <mxCell id="Msfk9kiayMqFVNuE4b56-16" value="Merge" style="rounded=0;whiteSpace=wrap;html=1;arcSize=50;strokeColor=none;strokeWidth=1;fillColor=none;whiteSpace=wrap;align=left;verticalAlign=middle;spacingLeft=0;fontStyle=1;fontSize=14;spacing=10;textShadow=0;shadow=0;direction=east;flipH=0;flipV=0;labelBackgroundColor=none;" parent="1" vertex="1">
          <mxGeometry x="380" y="355" width="60" height="20" as="geometry" />
        </mxCell>
        <mxCell id="Msfk9kiayMqFVNuE4b56-17" value="Feature" style="rounded=0;whiteSpace=wrap;html=1;arcSize=50;strokeColor=none;strokeWidth=1;fillColor=none;whiteSpace=wrap;align=left;verticalAlign=middle;spacingLeft=0;fontStyle=1;fontSize=14;spacing=10;textShadow=0;shadow=0;direction=east;flipH=0;flipV=0;labelBackgroundColor=none;" parent="1" vertex="1">
          <mxGeometry x="260" y="395" width="60" height="20" as="geometry" />
        </mxCell>
        <mxCell id="Msfk9kiayMqFVNuE4b56-18" value="Main" style="rounded=0;whiteSpace=wrap;html=1;arcSize=50;strokeColor=none;strokeWidth=1;fillColor=none;whiteSpace=wrap;align=left;verticalAlign=middle;spacingLeft=0;fontStyle=1;fontSize=14;spacing=10;textShadow=0;shadow=0;direction=east;flipH=0;flipV=0;labelBackgroundColor=none;" parent="1" vertex="1">
          <mxGeometry x="507" y="395" width="45" height="20" as="geometry" />
        </mxCell>
        <mxCell id="Msfk9kiayMqFVNuE4b56-21" value="" style="shape=singleArrow;direction=north;whiteSpace=wrap;html=1;shadow=0;textShadow=0;flipH=0;flipV=0;labelBackgroundColor=none;gradientColor=default;" parent="1" vertex="1">
          <mxGeometry x="519.5" y="230" width="20" height="60" as="geometry" />
        </mxCell>
        <mxCell id="Msfk9kiayMqFVNuE4b56-22" value="Update" style="rounded=0;whiteSpace=wrap;html=1;arcSize=50;strokeColor=none;strokeWidth=1;fillColor=none;whiteSpace=wrap;align=left;verticalAlign=middle;spacingLeft=0;fontStyle=1;fontSize=14;spacing=10;textShadow=0;labelBorderColor=none;shadow=0;direction=east;flipH=0;flipV=0;labelBackgroundColor=none;" parent="1" vertex="1">
          <mxGeometry x="459.5" y="250" width="60" height="20" as="geometry" />
        </mxCell>
        <mxCell id="Msfk9kiayMqFVNuE4b56-23" value="" style="image;sketch=0;aspect=fixed;html=1;points=[];align=center;fontSize=12;image=img/lib/mscae/Azure_Pipelines.svg;shadow=0;textShadow=0;direction=east;flipH=0;flipV=0;labelBackgroundColor=none;" parent="1" vertex="1">
          <mxGeometry x="539.5" y="250" width="20" height="20" as="geometry" />
        </mxCell>
        <mxCell id="Msfk9kiayMqFVNuE4b56-25" value="" style="shape=doubleArrow;direction=south;whiteSpace=wrap;html=1;shadow=0;textShadow=0;flipH=0;flipV=0;labelBackgroundColor=none;gradientColor=default;" parent="1" vertex="1">
          <mxGeometry x="278.5" y="230" width="20" height="60" as="geometry" />
        </mxCell>
        <mxCell id="Msfk9kiayMqFVNuE4b56-43" value="" style="shape=ext;double=1;rounded=1;whiteSpace=wrap;html=1;shadow=0;labelBorderColor=none;textShadow=0;flipH=0;glass=0;direction=east;flipV=0;labelBackgroundColor=none;gradientColor=none;fillColor=#EEEEEE;" parent="1" vertex="1">
          <mxGeometry x="230" y="55" width="120" height="170" as="geometry" />
        </mxCell>
        <mxCell id="Msfk9kiayMqFVNuE4b56-44" value="" style="shape=image;verticalLabelPosition=bottom;verticalAlign=top;imageAspect=0;image=https://www.brasoftware.com.br/Marketing/Microsoft/2023/ebook/fabric/img/icon-microsoft-fabric.png;shadow=0;textShadow=1;labelBackgroundColor=none;" parent="1" vertex="1">
          <mxGeometry x="190" y="10" width="75" height="75" as="geometry" />
        </mxCell>
        <mxCell id="Msfk9kiayMqFVNuE4b56-45" value="" style="image;aspect=fixed;html=1;points=[];align=center;fontSize=12;image=img/lib/azure2/compute/Workspaces.svg;shadow=0;textShadow=0;labelBackgroundColor=none;" parent="1" vertex="1">
          <mxGeometry x="256" y="97" width="65" height="56.00000000000001" as="geometry" />
        </mxCell>
        <mxCell id="Msfk9kiayMqFVNuE4b56-46" value="Feature Workspaces" style="rounded=1;whiteSpace=wrap;html=1;arcSize=50;strokeColor=none;strokeWidth=1;fillColor=none;whiteSpace=wrap;align=left;verticalAlign=middle;spacingLeft=0;fontStyle=1;fontSize=10;spacing=10;textShadow=0;shadow=0;direction=east;flipH=0;flipV=0;labelBackgroundColor=none;" parent="1" vertex="1">
          <mxGeometry x="228.5" y="151" width="120" height="27" as="geometry" />
        </mxCell>
        <mxCell id="k_nvuBsAAGkeRD765Vu4-21" value="" style="shape=ext;double=1;rounded=1;whiteSpace=wrap;html=1;labelBackgroundColor=#091f2c;labelBorderColor=none;gradientColor=none;fillColor=#999999;" parent="1" vertex="1">
          <mxGeometry x="440" y="55" width="632" height="170" as="geometry" />
        </mxCell>
        <mxCell id="Msfk9kiayMqFVNuE4b56-48" value="" style="shape=image;verticalLabelPosition=bottom;verticalAlign=top;imageAspect=0;image=https://www.brasoftware.com.br/Marketing/Microsoft/2023/ebook/fabric/img/icon-microsoft-fabric.png;shadow=0;textShadow=1;labelBackgroundColor=none;" parent="1" vertex="1">
          <mxGeometry x="395" y="10" width="75" height="75" as="geometry" />
        </mxCell>
        <mxCell id="k_nvuBsAAGkeRD765Vu4-22" value="" style="shape=ext;double=1;rounded=1;whiteSpace=wrap;html=1;shadow=0;labelBorderColor=none;textShadow=0;flipH=0;glass=0;direction=east;flipV=0;labelBackgroundColor=none;fillColor=#EEEEEE;" parent="1" vertex="1">
          <mxGeometry x="461.5" y="70" width="120" height="130" as="geometry" />
        </mxCell>
        <mxCell id="k_nvuBsAAGkeRD765Vu4-23" value="" style="image;aspect=fixed;html=1;points=[];align=center;fontSize=12;image=img/lib/azure2/compute/Workspaces.svg;shadow=0;textShadow=0;labelBackgroundColor=none;" parent="1" vertex="1">
          <mxGeometry x="489" y="97" width="65" height="56.00000000000001" as="geometry" />
        </mxCell>
        <mxCell id="k_nvuBsAAGkeRD765Vu4-24" value="Dev Workspace" style="rounded=1;whiteSpace=wrap;html=1;arcSize=50;strokeColor=none;strokeWidth=1;fillColor=none;whiteSpace=wrap;align=left;verticalAlign=middle;spacingLeft=0;fontStyle=1;fontSize=10;spacing=10;textShadow=0;shadow=0;direction=east;flipH=0;flipV=0;labelBackgroundColor=none;" parent="1" vertex="1">
          <mxGeometry x="471.5" y="153" width="110" height="27" as="geometry" />
        </mxCell>
        <mxCell id="k_nvuBsAAGkeRD765Vu4-25" value="" style="shape=ext;double=1;rounded=1;whiteSpace=wrap;html=1;shadow=0;labelBorderColor=none;textShadow=0;flipH=0;glass=0;direction=east;flipV=0;labelBackgroundColor=none;fillColor=#EEEEEE;" parent="1" vertex="1">
          <mxGeometry x="702.5" y="70" width="120" height="130" as="geometry" />
        </mxCell>
        <mxCell id="k_nvuBsAAGkeRD765Vu4-26" value="" style="image;aspect=fixed;html=1;points=[];align=center;fontSize=12;image=img/lib/azure2/compute/Workspaces.svg;shadow=0;textShadow=0;labelBackgroundColor=none;" parent="1" vertex="1">
          <mxGeometry x="730" y="97" width="65" height="56.00000000000001" as="geometry" />
        </mxCell>
        <mxCell id="k_nvuBsAAGkeRD765Vu4-27" value="Test Workspace" style="rounded=1;whiteSpace=wrap;html=1;arcSize=50;strokeColor=none;strokeWidth=1;fillColor=none;whiteSpace=wrap;align=left;verticalAlign=middle;spacingLeft=0;fontStyle=1;fontSize=10;spacing=10;textShadow=0;shadow=0;direction=east;flipH=0;flipV=0;labelBackgroundColor=none;" parent="1" vertex="1">
          <mxGeometry x="715.5" y="153" width="97" height="27" as="geometry" />
        </mxCell>
        <mxCell id="k_nvuBsAAGkeRD765Vu4-28" value="" style="shape=ext;double=1;rounded=1;whiteSpace=wrap;html=1;shadow=0;labelBorderColor=none;textShadow=1;flipH=0;glass=0;direction=east;flipV=0;labelBackgroundColor=none;fillColor=#EEEEEE;" parent="1" vertex="1">
          <mxGeometry x="942.5" y="70" width="118" height="130" as="geometry" />
        </mxCell>
        <mxCell id="k_nvuBsAAGkeRD765Vu4-29" value="" style="image;aspect=fixed;html=1;points=[];align=center;fontSize=12;image=img/lib/azure2/compute/Workspaces.svg;shadow=0;textShadow=0;labelBackgroundColor=none;" parent="1" vertex="1">
          <mxGeometry x="969" y="97" width="65" height="56.00000000000001" as="geometry" />
        </mxCell>
        <mxCell id="k_nvuBsAAGkeRD765Vu4-30" value="Prod Workspace" style="rounded=1;whiteSpace=wrap;html=1;arcSize=50;strokeColor=none;strokeWidth=1;fillColor=none;whiteSpace=wrap;align=left;verticalAlign=middle;spacingLeft=0;fontStyle=1;fontSize=10;spacing=10;textShadow=0;shadow=0;direction=east;flipH=0;flipV=0;labelBackgroundColor=none;" parent="1" vertex="1">
          <mxGeometry x="953" y="153" width="97" height="27" as="geometry" />
        </mxCell>
        <mxCell id="k_nvuBsAAGkeRD765Vu4-31" value="" style="shape=singleArrow;whiteSpace=wrap;html=1;shadow=0;textShadow=0;direction=east;flipH=0;flipV=0;labelBackgroundColor=none;gradientColor=default;" parent="1" vertex="1">
          <mxGeometry x="592.5" y="113" width="100" height="20" as="geometry" />
        </mxCell>
        <mxCell id="k_nvuBsAAGkeRD765Vu4-32" value="Deploy" style="rounded=0;whiteSpace=wrap;html=1;arcSize=50;strokeColor=none;strokeWidth=1;fillColor=none;whiteSpace=wrap;align=left;verticalAlign=middle;spacingLeft=0;fontStyle=1;fontSize=14;spacing=10;textShadow=0;shadow=0;direction=east;flipH=0;flipV=0;labelBackgroundColor=none;" parent="1" vertex="1">
          <mxGeometry x="604.5" y="133" width="60" height="20" as="geometry" />
        </mxCell>
        <mxCell id="k_nvuBsAAGkeRD765Vu4-33" value="" style="image;aspect=fixed;perimeter=ellipsePerimeter;html=1;align=center;shadow=0;dashed=0;labelBackgroundColor=none;fontSize=12;spacingTop=3;image=img/lib/ibm/devops/continuous_deploy.svg;imageBackground=none;" parent="1" vertex="1">
          <mxGeometry x="609.5" y="63" width="50" height="50" as="geometry" />
        </mxCell>
        <mxCell id="k_nvuBsAAGkeRD765Vu4-34" value="" style="shape=singleArrow;whiteSpace=wrap;html=1;shadow=0;textShadow=0;direction=east;flipH=0;flipV=0;labelBackgroundColor=none;gradientColor=default;" parent="1" vertex="1">
          <mxGeometry x="832.5" y="113" width="100" height="20" as="geometry" />
        </mxCell>
        <mxCell id="k_nvuBsAAGkeRD765Vu4-35" value="Deploy" style="rounded=0;whiteSpace=wrap;html=1;arcSize=50;strokeColor=none;strokeWidth=1;fillColor=none;whiteSpace=wrap;align=left;verticalAlign=middle;spacingLeft=0;fontStyle=1;fontSize=14;spacing=10;textShadow=0;shadow=0;direction=east;flipH=0;flipV=0;labelBackgroundColor=none;" parent="1" vertex="1">
          <mxGeometry x="844.5" y="130" width="60" height="20" as="geometry" />
        </mxCell>
        <mxCell id="k_nvuBsAAGkeRD765Vu4-36" value="" style="image;aspect=fixed;perimeter=ellipsePerimeter;html=1;align=center;shadow=0;dashed=0;labelBackgroundColor=none;fontSize=12;spacingTop=3;image=img/lib/ibm/devops/continuous_deploy.svg;" parent="1" vertex="1">
          <mxGeometry x="849.5" y="63" width="50" height="50" as="geometry" />
        </mxCell>
        <mxCell id="k_nvuBsAAGkeRD765Vu4-42" value="" style="image;sketch=0;aspect=fixed;html=1;points=[];align=center;fontSize=12;image=img/lib/mscae/Azure_Pipelines.svg;shadow=0;textShadow=0;direction=east;flipH=0;flipV=0;labelBackgroundColor=none;" parent="1" vertex="1">
          <mxGeometry x="734" y="290" width="60" height="60" as="geometry" />
        </mxCell>
        <mxCell id="I4pSgWL2VPGoG_SqzWpF-1" value="Trigger Deployment" style="rounded=0;whiteSpace=wrap;html=1;arcSize=50;strokeColor=none;strokeWidth=1;fillColor=none;whiteSpace=wrap;align=left;verticalAlign=middle;spacingLeft=0;fontStyle=1;fontSize=14;spacing=10;textShadow=0;labelBorderColor=none;shadow=0;direction=east;flipH=0;flipV=0;labelBackgroundColor=none;" parent="1" vertex="1">
          <mxGeometry x="692.5" y="335" width="172" height="55" as="geometry" />
        </mxCell>
        <mxCell id="2W3bwI5NA8aMhdSg8Gyx-6" value="" style="edgeStyle=segmentEdgeStyle;endArrow=classic;html=1;curved=0;rounded=0;endSize=8;startSize=8;" edge="1" parent="1">
          <mxGeometry width="50" height="50" relative="1" as="geometry">
            <mxPoint x="720" y="323" as="sourcePoint" />
            <mxPoint x="640" y="153" as="targetPoint" />
            <Array as="points">
              <mxPoint x="640" y="323" />
            </Array>
          </mxGeometry>
        </mxCell>
        <mxCell id="2W3bwI5NA8aMhdSg8Gyx-7" value="" style="edgeStyle=segmentEdgeStyle;endArrow=classic;html=1;curved=0;rounded=0;endSize=8;startSize=8;" edge="1" parent="1">
          <mxGeometry width="50" height="50" relative="1" as="geometry">
            <mxPoint x="800" y="323" as="sourcePoint" />
            <mxPoint x="882" y="153" as="targetPoint" />
            <Array as="points">
              <mxPoint x="800" y="323" />
              <mxPoint x="882" y="323" />
            </Array>
          </mxGeometry>
        </mxCell>
      </root>
    </mxGraphModel>
  </diagram>
</mxfile>
